<svg width="207" height="207" viewBox="0 0 207 207" fill="none" xmlns="http://www.w3.org/2000/svg">
<path d="M103.332 206.664C160.401 206.664 206.664 160.401 206.664 103.332C206.664 46.2634 160.401 0 103.332 0C46.2634 0 0 46.2634 0 103.332C0 160.401 46.2634 206.664 103.332 206.664Z" fill="#FEF2E8"/>
<mask id="mask0" mask-type="alpha" maskUnits="userSpaceOnUse" x="0" y="0" width="207" height="207">
<path d="M103.5 207C160.661 207 207 160.661 207 103.5C207 46.3385 160.661 0 103.5 0C46.3385 0 0 46.3385 0 103.5C0 160.661 46.3385 207 103.5 207Z" fill="#FEF2E8"/>
</mask>
<g mask="url(#mask0)">
<path d="M147.433 79.8525C147.433 96.4954 133.928 110 117.285 110C100.642 110 87.1372 96.4954 87.1372 79.8525C87.1372 63.2095 100.642 49.7047 117.285 49.7047C133.928 49.7047 147.433 63.2095 147.433 79.8525Z" fill="white"/>
<path d="M138.019 79.8525C138.019 86.5209 132.639 91.9004 125.971 91.9004C119.302 91.9004 113.923 86.5209 113.923 79.8525C113.923 73.1841 119.302 67.8046 125.971 67.8046C132.583 67.8046 138.019 73.1841 138.019 79.8525Z" fill="black"/>
<path d="M132.471 107.367C132.471 147.657 97.6722 180.27 54.692 180.27C11.7117 180.27 -23.0871 147.657 -23.0871 107.367C-23.0871 67.0761 11.7678 34.4626 54.692 34.4626C97.6162 34.4626 132.471 67.1321 132.471 107.367Z" fill="#ED8B2D"/>
<path d="M60.8 22.3587C70.1021 40.2344 67.1882 60.1835 54.2437 66.9079C41.2992 73.6323 23.2553 64.6664 13.9532 46.7907C4.6511 28.915 7.56501 8.96585 20.5095 2.24143C33.454 -4.48299 51.4979 4.48291 60.8 22.3587Z" fill="#ED8B2D"/>
<path d="M-23.1992 85.2881C-7.00457 97.2239 1.90528 112.69 -3.30614 119.751C-8.51757 126.867 -25.945 122.945 -42.1397 111.009C-58.3903 99.0731 -67.3002 83.607 -62.0327 76.4903C-56.8213 69.4297 -39.4499 73.2962 -23.1992 85.2881Z" fill="#ED8B2D"/>
<path d="M-43.9889 115.212C-30.4841 100.25 -13.617 93.5255 -6.27617 100.138C1.06465 106.75 -3.92262 124.234 -17.4275 139.195C-30.9324 154.157 -47.7995 160.882 -55.1403 154.269C-62.4811 147.657 -57.4938 130.174 -43.9889 115.212Z" fill="#ED8B2D"/>
<path d="M103.108 85.9044C103.108 102.547 89.6029 116.052 72.96 116.052C56.3171 116.052 42.8122 102.547 42.8122 85.9044C42.8122 84.8957 42.6441 80.4688 44.7735 75.2574C48.8642 65.0027 59.8474 55.7006 73.016 55.7566C88.3141 55.8126 103.108 68.6451 103.108 85.9044Z" fill="white"/>
<path d="M91.0598 86.9131C91.0598 93.5815 85.6803 98.9611 79.0119 98.9611C72.3435 98.9611 66.964 93.5815 66.964 86.9131C66.964 80.2448 72.3435 74.8652 79.0119 74.8652C85.6243 74.8652 91.0598 80.2448 91.0598 86.9131Z" fill="black"/>
<path d="M11.1514 164.916C20.3414 154.718 30.9884 149.338 34.967 152.924C38.8896 156.511 34.6308 167.606 25.4408 177.805C16.2507 188.004 5.60375 193.383 1.62514 189.797C-2.29744 186.21 1.96136 175.115 11.1514 164.916Z" fill="#ED8B2D"/>
<path d="M106.414 160.602C97.2239 150.403 86.5769 145.023 82.5983 148.61C78.6757 152.196 82.9345 163.291 92.1246 173.49C101.315 183.689 111.962 189.068 115.94 185.482C119.863 181.896 115.604 170.744 106.414 160.602Z" fill="#ED8B2D"/>
<path d="M113.736 106.621L110.956 152.433L137.917 154.069L140.697 108.257L113.736 106.621Z" fill="#EE77A4"/>
<path d="M111.065 152.42C107.815 152.196 105.798 141.829 106.582 129.165C107.367 116.501 110.617 106.414 113.867 106.638C117.117 106.862 119.134 117.229 118.35 129.893C117.565 142.502 114.315 152.644 111.065 152.42Z" fill="#EE77A4"/>
<path d="M137.738 153.933C133.48 153.653 130.678 143.23 131.406 130.566C132.191 117.901 136.225 107.871 140.484 108.095C144.743 108.375 147.545 118.798 146.816 131.462C146.032 144.127 141.997 154.213 137.738 153.933Z" fill="#E6569A"/>
<path d="M139.756 142.838C137.57 142.726 136.114 137.346 136.506 130.902C136.898 124.458 138.971 119.302 141.157 119.414C143.342 119.526 144.799 124.906 144.407 131.35C144.015 137.794 141.885 142.95 139.756 142.838Z" fill="black"/>
</g>
</svg>
