<svg width="240" height="64" viewBox="0 0 240 64" fill="none" xmlns="http://www.w3.org/2000/svg">
<path d="M22.8618 39.1656V33.6687H3.13982C0.784955 33.6687 0 32.0982 0 29.8405C0 27.5828 0.784955 26.0123 3.13982 26.0123H38.7572C40.5233 23.2638 41.897 19.6319 41.897 15.2147V9.91411C41.897 8.2454 41.3083 7.7546 39.7384 7.7546H5.39657C3.0417 7.7546 2.25675 6.18405 2.25675 3.92638C2.35487 1.57055 3.13982 0 5.39657 0H44.1537C48.2747 0 50.3353 2.25767 50.3353 6.18405V15.2147C50.3353 19.8282 49.5503 23.2638 47.8823 26.0123H51.1202C53.4751 26.0123 54.26 27.5828 54.26 29.8405C54.26 32.0982 53.4751 33.6687 51.1202 33.6687H31.3982V39.1656C45.6255 39.8528 52.1995 44.1718 52.1995 51.5337C52.1995 59.5828 44.35 64 27.081 64C9.81194 64 2.06051 59.681 2.06051 51.6319C2.06051 44.2699 8.63451 39.8528 22.8618 39.1656ZM27.081 56.638C40.229 56.638 43.6631 54.2822 43.6631 51.6319C43.6631 48.9816 40.229 46.6258 27.081 46.6258C13.933 46.6258 10.4988 48.9816 10.4988 51.6319C10.4988 54.1841 13.933 56.638 27.081 56.638Z" fill="black"/>
<path d="M174.947 28.2699C177.302 28.2699 178.087 29.8405 178.087 32.0982C178.087 34.454 177.302 35.9264 174.947 35.9264H155.225V39.8528C169.452 40.4417 176.026 44.4663 176.026 51.8282C176.026 59.8773 168.177 63.9018 150.908 63.9018C133.639 63.9018 125.789 59.8773 125.789 51.8282C125.789 44.4663 132.363 40.4417 146.59 39.8528V35.9264H126.868C124.513 35.9264 123.729 34.3558 123.729 32.0982C123.729 29.7423 124.513 28.2699 126.868 28.2699H174.947ZM166.509 3.1411C166.509 0.785276 168.471 0 170.728 0C173.083 0 174.947 0.785276 174.947 3.1411V18.2577C174.947 22.3804 172.886 24.4417 168.765 24.4417H133.148C129.027 24.4417 126.966 22.3804 126.966 18.2577V3.1411C126.966 0.785276 128.929 0 131.186 0C133.442 0 135.405 0.785276 135.405 3.1411V6.28221H166.41V3.1411H166.509ZM151.006 56.638C164.154 56.638 167.588 54.5767 167.588 52.0245C167.588 49.3742 164.154 47.411 151.006 47.411C137.858 47.411 134.424 49.3742 134.424 52.0245C134.424 54.5767 137.858 56.638 151.006 56.638ZM166.509 13.1534H135.503V15.2147C135.503 16.8834 136.092 17.3742 137.661 17.3742H164.252C165.92 17.3742 166.41 16.7853 166.41 15.2147V13.1534H166.509Z" fill="black"/>
<path d="M235.781 0C233.426 0 231.562 0.785276 231.562 3.1411V22.4785H223.614C221.259 22.4785 220.474 24.0491 220.474 26.3068C220.474 28.6626 221.259 30.135 223.614 30.135H231.562V56.4417C231.562 58.7976 233.524 59.5828 235.781 59.5828C238.136 59.5828 240 58.7976 240 56.4417V3.1411C240 0.785276 238.136 0 235.781 0Z" fill="black"/>
<path d="M107.637 39.4601H89.7794H72.0198C67.8988 39.4601 65.8383 41.5215 65.8383 45.6442V55.7546C65.8383 59.8773 67.8988 61.9387 72.0198 61.9387H89.8775H107.735C111.856 61.9387 113.917 59.8773 113.917 55.7546V45.7423C113.819 41.6196 111.758 39.4601 107.637 39.4601ZM105.282 53.1043C105.282 53.7914 104.988 54.1841 104.203 54.1841H89.7794H75.454C74.669 54.1841 74.3747 53.7914 74.3747 53.1043V48.2945C74.3747 47.6074 74.669 47.2147 75.454 47.2147H89.8775H104.301C105.086 47.2147 105.38 47.6074 105.38 48.2945V53.1043H105.282Z" fill="black"/>
<path d="M113.034 26.0123H110.286C111.562 22.9693 112.347 19.3374 112.347 15.2147V6.18405C112.347 2.25767 110.286 0 106.165 0H67.408C65.0531 0 64.2682 1.57055 64.2682 3.82822C64.2682 6.18405 65.0531 7.65644 67.408 7.65644H101.652C103.32 7.65644 103.81 8.2454 103.81 9.81595V15.1166C103.81 19.1411 102.731 22.8712 101.161 25.9141H65.0532C62.6983 25.9141 61.9133 27.4847 61.9133 29.7423C61.9133 32 62.6983 33.5706 65.0532 33.5706H113.034C115.388 33.5706 116.173 32 116.173 29.7423C116.173 27.4847 115.388 26.0123 113.034 26.0123Z" fill="black"/>
<path fill-rule="evenodd" clip-rule="evenodd" d="M201.439 5.20251C211.349 5.20251 218.414 13.1534 218.61 28.0737V28.3682V28.6626C218.414 43.5829 211.349 51.5338 201.439 51.5338C191.529 51.5338 184.464 43.5829 184.268 28.6626V28.3682V28.0737C184.464 13.1534 191.529 5.20251 201.439 5.20251ZM210.859 28.1718C210.859 18.2577 207.228 12.3682 201.439 12.3682C195.65 12.3682 192.02 18.2577 192.02 28.1718V28.27H192.023V28.5645H192.02C192.118 38.1841 195.748 43.8774 201.439 43.8774C207.13 43.8774 210.76 38.2823 210.859 28.5645H210.856V28.27H210.859V28.1718Z" fill="black"/>
</svg>
