<svg width="158" height="158" viewBox="0 0 158 158" fill="none" xmlns="http://www.w3.org/2000/svg">
<path d="M78.8719 157.744C122.432 157.744 157.744 122.432 157.744 78.8719C157.744 35.3121 122.432 0 78.8719 0C35.3122 0 0 35.3121 0 78.8719C0 122.432 35.3122 157.744 78.8719 157.744Z" fill="#FEF2E8"/>
<mask id="mask0" mask-type="alpha" maskUnits="userSpaceOnUse" x="0" y="0" width="158" height="158">
<path d="M79 158C122.631 158 158 122.631 158 79C158 35.3695 122.631 0 79 0C35.3695 0 0 35.3695 0 79C0 122.631 35.3695 158 79 158Z" fill="#FEF2E8"/>
</mask>
<g mask="url(#mask0)">
<path d="M112.533 60.9502C112.533 73.6535 102.225 83.9616 89.522 83.9616C76.8187 83.9616 66.5106 73.6535 66.5106 60.9502C66.5106 48.2469 76.8187 37.9388 89.522 37.9388C102.225 37.9388 112.533 48.2469 112.533 60.9502Z" fill="white"/>
<path d="M105.348 60.9502C105.348 66.0401 101.241 70.1462 96.1516 70.1462C91.0617 70.1462 86.9556 66.0401 86.9556 60.9502C86.9556 55.8603 91.0617 51.7542 96.1516 51.7542C101.199 51.7542 105.348 55.8603 105.348 60.9502Z" fill="#13130A"/>
<path d="M101.113 81.9513C101.113 112.704 74.5517 137.598 41.7456 137.598C8.93939 137.598 -17.6221 112.704 -17.6221 81.9513C-17.6221 51.1982 8.98216 26.3048 41.7456 26.3048C74.509 26.3048 101.113 51.2409 101.113 81.9513Z" fill="#ED8B2D"/>
<path d="M46.4078 17.066C53.5079 30.7103 51.2838 45.9371 41.4034 51.0698C31.5231 56.2024 17.7505 49.3589 10.6503 35.7146C3.55015 22.0703 5.7743 6.84348 15.6546 1.71083C25.535 -3.42181 39.3076 3.42172 46.4078 17.066Z" fill="#ED8B2D"/>
<path d="M-17.7076 65.0991C-5.34643 74.2096 1.45432 86.0147 -2.52348 91.404C-6.50128 96.836 -19.8034 93.842 -32.1645 84.7315C-44.5684 75.6211 -51.3692 63.816 -47.3486 58.3839C-43.3708 52.9946 -30.1115 55.9459 -17.7076 65.0991Z" fill="#ED8B2D"/>
<path d="M-33.5762 87.9393C-23.2681 76.5192 -10.3937 71.3865 -4.79058 76.4336C0.812564 81.4807 -2.99415 94.8256 -13.3022 106.246C-23.6103 117.666 -36.4847 122.799 -42.0878 117.751C-47.691 112.704 -43.8842 99.3595 -33.5762 87.9393Z" fill="#ED8B2D"/>
<path d="M78.7007 65.5695C78.7007 78.2729 68.3926 88.5809 55.6893 88.5809C42.986 88.5809 32.6779 78.2729 32.6779 65.5695C32.6779 64.7997 32.5496 61.4207 34.1749 57.4429C37.2973 49.6156 45.6806 42.5154 55.7321 42.5582C67.4088 42.6009 78.7007 52.3958 78.7007 65.5695Z" fill="white"/>
<path d="M69.5047 66.3395C69.5047 71.4294 65.3985 75.5355 60.3087 75.5355C55.2188 75.5355 51.1127 71.4294 51.1127 66.3395C51.1127 61.2496 55.2188 57.1435 60.3087 57.1435C65.3558 57.1435 69.5047 61.2496 69.5047 66.3395Z" fill="#13130A"/>
<path d="M8.51159 125.878C15.5262 118.094 23.6529 113.988 26.6897 116.725C29.6838 119.462 26.4331 127.931 19.4185 135.716C12.4038 143.5 4.27715 147.606 1.24034 144.869C-1.75371 142.132 1.49697 133.663 8.51159 125.878Z" fill="#ED8B2D"/>
<path d="M81.2242 122.585C74.2096 114.8 66.0829 110.694 63.0461 113.432C60.0521 116.169 63.3028 124.638 70.3174 132.422C77.332 140.207 85.4587 144.313 88.4955 141.576C91.4895 138.838 88.2389 130.327 81.2242 122.585Z" fill="#ED8B2D"/>
<path d="M86.8129 81.3823L84.6912 116.35L105.27 117.598L107.392 82.631L86.8129 81.3823Z" fill="#EE77A4"/>
<path d="M84.7743 116.34C82.2935 116.169 80.7537 108.256 81.3525 98.5896C81.9513 88.9231 84.4321 81.2242 86.9129 81.3953C89.3937 81.5663 90.9335 89.4792 90.3346 99.1457C89.7358 108.769 87.2551 116.511 84.7743 116.34Z" fill="#EE77A4"/>
<path d="M105.134 117.495C101.883 117.281 99.7445 109.325 100.301 99.6589C100.899 89.9924 103.979 82.3362 107.23 82.5073C110.48 82.7211 112.619 90.6767 112.063 100.343C111.464 110.01 108.384 117.709 105.134 117.495Z" fill="#E6569A"/>
<path d="M106.674 109.026C105.005 108.94 103.893 104.834 104.193 99.9155C104.492 94.9967 106.075 91.0617 107.743 91.1472C109.411 91.2328 110.523 95.3389 110.224 100.258C109.924 105.176 108.299 109.112 106.674 109.026Z" fill="#13130A"/>
</g>
</svg>
