<svg width="85" height="78" viewBox="0 0 85 78" fill="none" xmlns="http://www.w3.org/2000/svg">
<path d="M84.0958 33.1311C84.0958 39.7518 78.7707 45.1242 72.2082 45.1242C65.6458 45.1242 60.3207 39.7518 60.3207 33.1311C60.3207 26.5104 65.6458 21.1381 72.2082 21.1381C78.7707 21.1381 84.0958 26.5104 84.0958 33.1311Z" fill="white"/>
<path d="M80.3837 33.1311C80.3837 35.7838 78.2625 37.9238 75.633 37.9238C73.0036 37.9238 70.8824 35.7838 70.8824 33.1311C70.8824 30.4783 73.0036 28.3383 75.633 28.3383C78.2404 28.3383 80.3837 30.4783 80.3837 33.1311Z" fill="#13130A"/>
<path d="M78.1963 44.0765C78.1963 60.1044 64.4748 73.0783 47.5273 73.0783C30.5798 73.0783 16.8583 60.1044 16.8583 44.0765C16.8583 28.0487 30.6019 15.0748 47.5273 15.0748C64.4527 15.0748 78.1963 28.0709 78.1963 44.0765Z" fill="#ED9027"/>
<path d="M49.9356 10.2596C53.6035 17.3708 52.4545 25.3067 47.3504 27.9817C42.2463 30.6567 35.1314 27.09 31.4635 19.9789C27.7956 12.8678 28.9446 4.93186 34.0487 2.25683C39.1529 -0.4182 46.2677 3.14851 49.9356 10.2596Z" fill="#ED9027"/>
<path d="M16.814 35.2935C23.1997 40.0417 26.713 46.1943 24.658 49.003C22.6031 51.8341 15.7313 50.2737 9.34564 45.5255C2.93786 40.7773 -0.57538 34.6248 1.50163 31.7937C3.55654 28.9849 10.4062 30.523 16.814 35.2935Z" fill="#ED9027"/>
<path d="M8.61646 47.1974C13.9415 41.2454 20.5924 38.5704 23.4869 41.2009C26.3815 43.8313 24.415 50.7864 19.0899 56.7383C13.7648 62.6903 7.11394 65.3653 4.21939 62.7349C1.32483 60.1044 3.29136 53.1493 8.61646 47.1974Z" fill="#ED9027"/>
<path d="M66.618 35.5387C66.618 42.1594 61.2929 47.5318 54.7305 47.5318C48.168 47.5318 42.8429 42.1594 42.8429 35.5387C42.8429 35.1375 42.7766 33.3764 43.6163 31.3033C45.2293 27.2238 49.56 23.5234 54.7526 23.5457C60.7847 23.568 66.618 28.6728 66.618 35.5387Z" fill="white"/>
<path d="M61.8674 35.94C61.8674 38.5927 59.7462 40.7327 57.1168 40.7327C54.4874 40.7327 52.3662 38.5927 52.3662 35.94C52.3662 33.2872 54.4874 31.1472 57.1168 31.1472C59.7241 31.1472 61.8674 33.2872 61.8674 35.94Z" fill="#13130A"/>
<path d="M30.3587 66.9702C33.9825 62.9131 38.1807 60.773 39.7495 62.1997C41.2962 63.6264 39.6169 68.0402 35.9932 72.0973C32.3695 76.1544 28.1713 78.2945 26.6025 76.8678C25.0557 75.4411 26.735 71.0273 30.3587 66.9702Z" fill="#ED9027"/>
<path d="M67.9216 65.2538C64.2979 61.1967 60.0997 59.0567 58.5309 60.4833C56.9842 61.91 58.6635 66.3238 62.2872 70.381C65.9109 74.4381 70.1091 76.5781 71.6779 75.1514C73.2246 73.7247 71.5454 69.2887 67.9216 65.2538Z" fill="#ED9027"/>
<path d="M70.8087 43.78L69.7126 62.0042L80.3437 62.655L81.4398 44.4308L70.8087 43.78Z" fill="#EE77A4"/>
<path d="M69.7556 61.9992C68.474 61.91 67.6786 57.786 67.9879 52.7481C68.2973 47.7101 69.5788 43.6975 70.8604 43.7867C72.1419 43.8759 72.9374 47.9999 72.628 53.0378C72.3187 58.0535 71.0371 62.0884 69.7556 61.9992Z" fill="#EE77A4"/>
<path d="M80.2732 62.601C78.5939 62.4896 77.4891 58.3433 77.7764 53.3053C78.0857 48.2673 79.6766 44.2771 81.3559 44.3663C83.0352 44.4777 84.1399 48.624 83.8527 53.662C83.5434 58.7 81.9525 62.7125 80.2732 62.601Z" fill="#E6569A"/>
<path d="M81.0687 58.1873C80.2069 58.1427 79.6325 56.0027 79.7871 53.4391C79.9418 50.8756 80.7593 48.8247 81.6211 48.8693C82.4828 48.9139 83.0573 51.0539 82.9026 53.6175C82.748 56.181 81.9083 58.2319 81.0687 58.1873Z" fill="#13130A"/>
</svg>
